<?xml version="1.0" encoding="UTF-8"?>
<svg version="1.1" xmlns="http://www.w3.org/2000/svg" width="1024" height="1024">
<path d="M0 0 C0.98154053 -0.00137466 1.96308105 -0.00274933 2.97436523 -0.00416565 C4.0446698 -0.00057037 5.11497437 0.0030249 6.2177124 0.00672913 C7.34971069 0.0065831 8.48170898 0.00643707 9.64801025 0.00628662 C13.39229239 0.00698368 17.13652488 0.01476648 20.88079834 0.02259827 C23.4758298 0.02446318 26.07086162 0.02588674 28.66589355 0.02688599 C34.79981529 0.03031494 40.93371652 0.03819768 47.06763053 0.04823548 C54.05186846 0.05941645 61.03610724 0.06491207 68.02035189 0.06993091 C82.38530195 0.08038082 96.75023701 0.0979679 111.11517334 0.12025452 C112.23980713 4.9065094 112.23980713 4.9065094 111.11810303 6.83021545 C110.33548096 7.58480042 110.33548096 7.58480042 109.53704834 8.35462952 C108.95858154 8.92407288 108.38011475 9.49351624 107.78411865 10.08021545 C107.1508667 10.67092834 106.51761475 11.26164124 105.86517334 11.87025452 C105.22418701 12.48932678 104.58320068 13.10839905 103.92279053 13.74623108 C99.38250641 18.07880454 94.62936944 22.08150635 89.70501709 25.97181702 C86.03857978 29.01335626 82.76444803 32.390118 79.43548584 35.79212952 C76.84833156 38.38799475 74.14211995 40.77572885 71.36126709 43.15931702 C68.47862114 45.67599227 65.67220318 48.2698293 62.86517334 50.87025452 C62.30942627 51.38483215 61.7536792 51.89940979 61.18109131 52.42958069 C60.04948035 53.47756784 58.91797023 54.52566389 57.78656006 55.5738678 C48.6985411 63.9822102 39.58929502 72.37729289 30.24017334 80.49525452 C26.85722435 83.44169396 23.54274822 86.45940208 20.24017334 89.49525452 C12.69427322 96.42840308 5.10925774 103.29316123 -2.69732666 109.93275452 C-7.9419235 114.39361063 -13.03015714 118.98908496 -18.05987549 123.68983459 C-22.26265182 127.596919 -26.60707754 131.30254666 -31.01226807 134.97816467 C-34.88818257 138.23039554 -38.62591357 141.60351829 -42.32232666 145.05775452 C-48.4349101 150.76393824 -54.74157114 156.21297299 -61.11871338 161.62025452 C-64.04980176 164.10969425 -66.96668274 166.61566726 -69.88482666 169.12025452 C-73.42808253 172.15967342 -76.97320406 175.19681482 -80.52545166 178.22572327 C-85.76259461 182.69566391 -90.9791514 187.17320641 -96.07232666 191.80775452 C-100.23608701 195.58560537 -104.54439348 199.14430232 -108.91217041 202.68275452 C-114.03610287 206.88424447 -119.04068072 211.22466638 -124.06011963 215.54994202 C-125.90659746 217.1389901 -127.75642511 218.72404477 -129.60748291 220.30775452 C-130.21519531 220.82781067 -130.82290771 221.34786682 -131.44903564 221.88368225 C-132.64222493 222.90441651 -133.83573929 223.92477092 -135.02960205 224.94471741 C-138.88310871 228.24260474 -142.68579012 231.59069942 -146.43170166 235.01087952 C-147.88482666 236.12025452 -147.88482666 236.12025452 -149.88482666 236.12025452 C-149.88482666 236.78025452 -149.88482666 237.44025452 -149.88482666 238.12025452 C-151.43723007 239.51351405 -153.05512651 240.8340558 -154.69732666 242.12025452 C-158.7242996 245.33770793 -162.59539678 248.62063674 -166.38482666 252.12025452 C-169.9415291 255.39443875 -173.55644477 258.52667885 -177.32232666 261.55775452 C-181.85799109 265.21596466 -186.14183836 269.06768417 -190.40411377 273.03407288 C-193.63676641 276.02452451 -196.95179432 278.85804459 -200.38482666 281.62025452 C-205.49294412 285.73328416 -210.30236122 290.10527012 -215.11138916 294.55775452 C-220.30499661 299.3563552 -225.633574 303.92844424 -231.13482666 308.37025452 C-235.75013617 312.11740069 -240.12332689 316.05416847 -244.47149658 320.10145569 C-248.29611968 323.63859699 -252.28387099 326.88184688 -256.38482666 330.08900452 C-259.17313692 332.3545066 -261.80645195 334.74728117 -264.44732666 337.18275452 C-268.37396747 340.80055841 -272.39563673 344.12667707 -276.64654541 347.35072327 C-280.00711909 350.00751188 -283.12545211 352.91578719 -286.28717041 355.80384827 C-288.90576124 358.1389225 -291.59159474 360.35530075 -294.32232666 362.55775452 C-298.12570169 365.6336204 -301.78565318 368.80778618 -305.38482666 372.12025452 C-309.77511235 376.15658507 -314.29658286 379.96055981 -318.93560791 383.70619202 C-322.29850578 386.45886869 -325.59425505 389.28192466 -328.88482666 392.12025452 C-333.06529875 395.72618084 -337.27629147 399.27655848 -341.57232666 402.74525452 C-345.31288493 405.77828784 -348.90359422 408.92192509 -352.44732666 412.18275452 C-356.55790959 415.96240068 -360.78308371 419.48926243 -365.16998291 422.94056702 C-370.24414141 427.01449571 -375.1402859 431.30021359 -380.065979 435.55140686 C-383.02161984 438.10079586 -385.98412562 440.64216042 -388.94732666 443.18275452 C-389.52708252 443.68001038 -390.10683838 444.17726624 -390.7041626 444.68959045 C-395.11175099 448.46646748 -399.53982644 452.21855721 -403.97515869 455.96278381 C-408.68478163 459.94204894 -413.36691714 463.95293064 -418.04107666 467.97377014 C-419.12632343 468.906364 -420.21589508 469.83395306 -421.31011963 470.7559967 C-422.37414478 471.67782191 -423.40976916 472.63331594 -424.41656494 473.61732483 C-425.91998291 475.03431702 -425.91998291 475.03431702 -428.88482666 477.12025452 C-432.07012939 476.75062561 -432.07012939 476.75062561 -434.88482666 476.12025452 C-437.56246971 466.0748935 -439.70194376 456.08712492 -441.29275513 445.81532288 C-445.53239304 418.60962425 -450.6278274 391.44898866 -457.71466064 364.83119202 C-459.27904698 358.90983418 -460.5985712 353.25343007 -460.88482666 347.12025452 C-458.88482666 344.12025452 -458.88482666 344.12025452 -456.78790283 343.58363342 C-455.92656738 343.50548401 -455.06523193 343.42733459 -454.17779541 343.34681702 C-452.72469971 343.19732605 -452.72469971 343.19732605 -451.24224854 343.04481506 C-450.19617432 342.94596008 -449.1501001 342.8471051 -448.07232666 342.74525452 C-407.66717015 338.28168308 -367.08528567 320.47809796 -340.32232666 288.93275452 C-327.94288445 273.25649437 -315.2104956 253.36720372 -314.74420166 232.87025452 C-314.72486572 232.09681702 -314.70552979 231.32337952 -314.68560791 230.52650452 C-314.65175909 228.92259141 -314.63352474 227.31827264 -314.63092041 225.71400452 C-314.50264783 221.66329136 -314.30977003 219.67888794 -311.79888916 216.37806702 C-308.44596106 213.78022192 -305.04295217 211.34037087 -301.50982666 208.99525452 C-296.04996243 205.31022219 -290.67311482 201.54759134 -285.38482666 197.62025452 C-279.74150062 193.44190192 -274.01336114 189.41333402 -268.21466064 185.45399475 C-262.76656091 181.73316574 -257.3507319 177.96818512 -251.94732666 174.18275452 C-251.10242676 173.5909137 -250.25752686 172.99907288 -249.38702393 172.38929749 C-243.96005483 168.58391196 -238.54534451 164.76147647 -233.13482666 160.93275452 C-227.08986433 156.65533326 -221.00463267 152.44125024 -214.89459229 148.25746155 C-209.4022963 144.49058568 -203.95713161 140.65977448 -198.52154541 136.81166077 C-192.98903246 132.89572601 -187.4400425 129.00390474 -181.88482666 125.12025452 C-169.87138837 116.71613188 -157.87141026 108.30035328 -146.00982666 99.68275452 C-139.08997685 94.65810724 -132.0697483 89.80129142 -124.99517822 84.99769592 C-118.75766771 80.74949387 -112.626749 76.36848888 -106.52252197 71.93153381 C-101.42142999 68.22444907 -96.29150036 64.56210896 -91.13482666 60.93275452 C-89.72986087 59.94319657 -88.32491263 58.95361369 -86.91998291 57.96400452 C-85.90702148 57.25050842 -85.90702148 57.25050842 -84.87359619 56.52259827 C-76.47123436 50.5978295 -68.14679982 44.59643344 -59.94342041 38.39759827 C-56.64549226 35.94205279 -53.30318685 33.55799723 -49.94732666 31.18275452 C-42.53146335 25.9233636 -35.34390127 20.39005311 -28.18365479 14.78968811 C-9.25292876 -0.01001399 -9.25292876 -0.01001399 0 0 Z " fill="#010101" transform="translate(881.8848266601563,280.87974548339844)"/>
<path d="M0 0 C4.64793339 0.02183916 9.29583809 0.01426822 13.94380844 0.01048863 C21.97298041 0.00788228 30.00194732 0.02340719 38.03106773 0.05167782 C49.63941722 0.09252408 61.24766879 0.10535652 72.85608234 0.11161778 C91.69545425 0.12252803 110.53471717 0.15571297 129.37402999 0.20313084 C147.66145939 0.24911143 165.94885905 0.28446162 184.23633468 0.3056699 C185.36587581 0.30698352 186.49541693 0.30829714 187.65918658 0.30965056 C193.32645015 0.31617633 198.99371392 0.32249473 204.66097784 0.32871008 C251.58615595 0.38044114 298.51121524 0.46841673 345.43628585 0.58032811 C346.66773117 6.15308201 346.66773117 6.15308201 344.58472335 9.99829686 C343.67706961 11.26701465 342.75119455 12.52281734 341.81128585 13.76782811 C340.7792124 15.19952653 339.74799642 16.63184338 338.71753585 18.06470311 C338.17484054 18.80784764 337.63214523 19.55099217 337.0730046 20.31665623 C334.41050091 23.99904499 331.86560913 27.75999105 329.31128585 31.51782811 C328.2190315 33.11431472 327.12657633 34.71066396 326.0339421 36.30689061 C322.66751449 41.23498497 319.31958511 46.17552406 315.97168624 51.11621678 C313.09981924 55.34942128 310.21899377 59.57644852 307.33374679 63.80054295 C306.16509833 65.51261595 304.99860617 67.22616601 303.83569992 68.94214451 C296.9565794 79.07196816 290.45548283 88.33527609 277.92276561 91.14354527 C273.03293906 91.75613805 268.20090023 91.71067114 263.27760971 91.6938535 C262.14940006 91.69400236 261.02119042 91.69415122 259.8587926 91.69430459 C256.07544131 91.69360973 252.29213848 91.68576536 248.50879562 91.67798436 C245.7964953 91.67550142 243.08419499 91.67454947 240.37189376 91.67355931 C234.52633766 91.6706736 228.6807942 91.6642348 222.83524406 91.6554929 C214.35855954 91.64291173 205.88187968 91.6368552 197.40518736 91.63255954 C183.61859345 91.62549081 169.8320054 91.61469262 156.04541671 91.60083592 C155.22046134 91.60000811 154.39550597 91.5991803 153.54555195 91.5983274 C146.86214886 91.59159206 140.17874596 91.58467518 133.49534309 91.57772458 C127.67805 91.57167741 121.86075685 91.56569443 116.04346359 91.55982029 C115.22467244 91.55899217 114.40588128 91.55816404 113.56227828 91.55731082 C99.84701849 91.5435631 86.1317586 91.53383548 72.41649371 91.52690995 C63.97719229 91.52245778 55.53790874 91.51447862 47.09861564 91.50176513 C41.29519988 91.49325543 35.49178818 91.48842959 29.6883666 91.48633993 C26.35389659 91.48501196 23.01946776 91.48153698 19.68500221 91.47458088 C7.40867911 91.44980372 -4.86369372 91.4852461 -17.13416398 91.89893162 C-18.47968343 91.93207793 -18.47968343 91.93207793 -19.8523851 91.96589386 C-27.51693411 92.27944836 -35.33372424 93.36366837 -41.75121415 97.76782811 C-44.25450728 101.65224849 -43.949824 104.02423189 -43.56371415 108.58032811 C-37.76926218 111.03599493 -32.10007218 111.01365078 -25.90746415 111.17798436 C-24.73357132 111.21521107 -23.5596785 111.25243779 -22.35021317 111.29079258 C-5.03655695 111.79897187 12.28979134 111.91351412 29.6096257 112.05713475 C33.42100492 112.08914493 37.23219447 112.13039892 41.04341781 112.17733014 C42.46891032 112.19312623 43.89444508 112.20554793 45.31999862 112.21423733 C68.2165378 112.35640737 68.2165378 112.35640737 77.24878585 120.14282811 C81.02484114 124.7138424 79.95060469 132.07831264 79.43628585 137.58032811 C76.84473974 147.55899166 71.47542078 156.65355419 66.43628585 165.58032811 C66.03184249 166.30397557 65.62739913 167.02762303 65.21069992 167.7731992 C51.90782249 191.47119325 51.90782249 191.47119325 40.63941085 195.17017186 C37.69217503 195.71885938 34.87111532 195.71202605 31.87378585 195.70532811 C30.73812179 195.70790623 29.60245773 195.71048436 28.4323796 195.71314061 C25.42008051 195.61302509 22.51472414 195.40881546 19.52277267 195.1063596 C13.03973692 194.50573948 6.56237299 194.24301247 0.05640304 194.0310117 C-1.20534367 193.98897807 -2.46709038 193.94694443 -3.76707184 193.90363705 C-16.07908745 193.52043375 -28.38693311 193.41587225 -40.70417893 193.38109791 C-44.61778358 193.36898133 -48.53131893 193.3497323 -52.4448787 193.32797825 C-63.54663063 193.26722053 -74.64836489 193.21195902 -85.75023758 193.17896092 C-91.94078282 193.16048546 -98.13118743 193.13142988 -104.32162893 193.09095621 C-107.5673963 193.07017856 -110.81295623 193.05617454 -114.05879319 193.05214894 C-157.47528927 192.99247581 -157.47528927 192.99247581 -173.56371415 179.58032811 C-180.0634887 172.6212547 -182.16109822 165.77032265 -181.91625321 156.29102147 C-180.87306988 145.31086671 -174.90114359 134.54840968 -170.28978837 124.62009251 C-168.61298424 121.00859909 -166.95620858 117.38792877 -165.29808915 113.76782811 C-164.97231888 113.05758992 -164.64654862 112.34735173 -164.31090653 111.61559117 C-161.64279394 105.78581604 -159.07015235 99.91901981 -156.56371415 94.01782811 C-156.21155838 93.19218358 -155.85940262 92.36653904 -155.49657547 91.51587498 C-153.89208173 87.74384003 -152.30867626 83.96415335 -150.7473079 80.17407811 C-137.0737514 47.33780279 -108.64311883 30.30239973 -77.68285477 15.59253514 C-76.20559564 14.88692265 -74.73327039 14.17092709 -73.26488602 13.44702733 C-70.81211275 12.24006761 -68.34618668 11.06413521 -65.87621415 9.89282811 C-65.16022049 9.53624119 -64.44422684 9.17965428 -63.70653641 8.8122617 C-43.37756062 -0.60651835 -21.87251025 -0.12920077 0 0 Z " fill="#010101" transform="translate(324.5637141466141,280.4196718931198)"/>
<path d="M0 0 C1.2038736 -0.00701431 2.40774719 -0.01402863 3.64810181 -0.02125549 C4.96601212 -0.01361176 6.28392242 -0.00596802 7.64176941 0.00190735 C9.04657765 -0.00052135 10.45138417 -0.00424142 11.85618591 -0.00915527 C15.67304232 -0.01856687 19.48964233 -0.00913158 23.30647874 0.00417686 C27.31266702 0.01551099 31.31884301 0.01138169 35.32504272 0.00942993 C42.0646125 0.00854645 48.80408181 0.01962919 55.54362488 0.03804016 C63.30170417 0.05911422 71.05963531 0.06273812 78.8177374 0.0564782 C86.30563207 0.05074836 93.79347528 0.0564786 101.28136253 0.06765175 C104.45360467 0.07225979 107.62581493 0.07318809 110.79805946 0.0710659 C114.55326881 0.06915833 118.30833123 0.0774728 122.06350708 0.0931263 C124.07279538 0.09928055 126.0821061 0.09589827 128.09140015 0.09205627 C141.5824355 0.16945691 155.19412542 0.82335704 166.92765808 8.1242218 C173.89635739 15.29202681 175.46007364 22.31370348 175.50016785 32.05659485 C175.12674085 52.47800508 162.77775956 70.11764213 148.8021698 84.05830383 C141.02404833 91.54682723 132.00990629 96.22110698 122.11515808 100.3742218 C122.83832214 101.13605774 122.83832214 101.13605774 123.57609558 101.9132843 C124.20773621 102.60164368 124.83937683 103.29000305 125.49015808 103.9992218 C126.11664246 104.67211243 126.74312683 105.34500305 127.38859558 106.0382843 C133.04112499 113.68582409 131.87608691 124.43747017 130.72062683 133.4523468 C124.54108964 161.99782184 103.23184183 186.07820285 79.18058777 201.62471008 C66.97691209 209.15944127 54.17298543 214.50470637 40.30265808 218.1242218 C39.55790222 218.32305969 38.81314636 218.52189758 38.04582214 218.72676086 C24.19024923 222.1193686 9.85605245 222.67601088 -4.34161377 222.59022522 C-5.91005966 222.58839243 -7.47850679 222.58745002 -9.04695374 222.58730531 C-13.29894315 222.58436585 -17.55080334 222.56890435 -21.80275309 222.55112815 C-26.40988554 222.53411894 -31.01703444 222.52899655 -35.62419128 222.52227783 C-44.62250214 222.50725788 -53.62074858 222.48127997 -62.61902063 222.45126215 C-69.92881805 222.4270825 -77.2386164 222.40695304 -84.5484333 222.38967133 C-85.5914395 222.38720243 -86.63444571 222.38473354 -87.70905815 222.38218983 C-89.82816232 222.37719172 -91.94726652 222.37220315 -94.06637073 222.36722401 C-113.88863241 222.32018295 -133.71084149 222.26067882 -153.53305513 222.1968179 C-170.54719229 222.1422917 -187.56133005 222.09839581 -204.57551575 222.06221008 C-224.35344182 222.02014078 -244.13133463 221.97164934 -263.90921837 221.91277242 C-266.01564123 221.90651877 -268.12206411 221.90027305 -270.22848701 221.89403534 C-271.26482467 221.89096268 -272.30116233 221.88789002 -273.36890415 221.88472424 C-280.67891806 221.86349281 -287.98893419 221.84686994 -295.29896355 221.83200836 C-304.19320506 221.81379738 -313.08739259 221.78852345 -321.98158663 221.75408116 C-326.52071186 221.73668179 -331.05978724 221.72251455 -335.59894371 221.71692467 C-339.74894508 221.71172307 -343.89880895 221.69741472 -348.04875565 221.67566195 C-349.55430711 221.66939407 -351.05987712 221.66652667 -352.56544142 221.66730055 C-354.60305544 221.66785165 -356.64066029 221.6550712 -358.67822933 221.64152145 C-359.81256938 221.63815899 -360.94690943 221.63479652 -362.11562341 221.63133216 C-364.88484192 221.3742218 -364.88484192 221.3742218 -367.88484192 219.3742218 C-367.38379231 214.9430643 -365.94907415 212.93049068 -362.88484192 209.7492218 C-355.87929575 202.26627708 -349.56675519 194.24209412 -343.17781067 186.2335968 C-340.28222142 182.62274275 -337.36624766 179.02873817 -334.44734192 175.4367218 C-333.59789001 174.39101013 -333.59789001 174.39101013 -332.73127747 173.32417297 C-329.65174851 169.53648136 -326.5559105 165.7631416 -323.44734192 161.9992218 C-318.28109633 155.69659317 -313.30449366 149.24621388 -308.31452942 142.8039093 C-307.7545929 142.0817926 -307.19465637 141.3596759 -306.61775208 140.61567688 C-305.4101124 139.05363971 -304.20700252 137.48809443 -303.00740051 135.9198761 C-302.39461243 135.12234924 -301.78182434 134.32482239 -301.15046692 133.50312805 C-300.59907043 132.78197815 -300.04767395 132.06082825 -299.47956848 131.31782532 C-295.32808859 126.25812976 -290.68852739 122.93592067 -284.110672 121.96455383 C-271.28393704 121.1502492 -258.44796036 121.21931952 -245.59981537 121.24544907 C-243.54880715 121.2492656 -241.49780366 121.25130372 -239.4467926 121.25291443 C-207.25457968 121.28255177 -175.07060987 121.75861605 -142.88484192 122.3742218 C-141.73227905 122.39591431 -140.57971619 122.41760681 -139.39222717 122.43995667 C-133.26046569 122.5559819 -127.12892062 122.67865748 -120.99757385 122.81492615 C-119.23201812 122.85405912 -117.4664334 122.89190751 -115.70082092 122.9283905 C-113.34403793 122.9781478 -110.98751222 123.03433929 -108.63093567 123.0929718 C-107.33856995 123.12326477 -106.04620422 123.15355774 -104.7146759 123.18476868 C-101.88484192 123.3742218 -101.88484192 123.3742218 -100.88484192 124.3742218 C-100.50593567 126.54219055 -100.50593567 126.54219055 -100.88484192 129.3742218 C-102.50381951 131.66069829 -104.07657628 133.63010232 -105.94734192 135.6867218 C-106.41333801 136.21717102 -106.87933411 136.74762024 -107.35945129 137.29414368 C-108.3006697 138.36341901 -109.24697172 139.42824556 -110.19882202 140.48806763 C-112.00606264 142.50983168 -113.79362549 144.54779538 -115.57795715 146.58979797 C-116.19976364 147.30117416 -116.82157013 148.01255035 -117.46221924 148.7454834 C-117.93168472 149.28296707 -118.40115021 149.82045074 -118.88484192 150.3742218 C-103.46332061 150.42110154 -88.0418047 150.45628849 -72.62022877 150.47784615 C-65.45849019 150.4881252 -58.29679608 150.50212042 -51.13508606 150.52510071 C-44.8873727 150.5451385 -38.63969158 150.55796269 -32.39194697 150.56239879 C-29.08886671 150.56498873 -25.78589924 150.57208098 -22.4828434 150.58568192 C-18.78060689 150.60031288 -15.07855801 150.6021949 -11.376297 150.60127258 C-9.76327194 150.61205841 -9.76327194 150.61205841 -8.11766052 150.62306213 C7.17276234 150.5821516 20.57406734 148.66445255 31.91203308 137.80781555 C36.72881757 132.48714758 40.11515808 126.66893752 40.11515808 119.3742218 C38.34984241 116.7262483 37.18416229 116.39722321 34.11515808 115.3742218 C31.84681559 115.26606489 29.57546454 115.21797895 27.30461121 115.20063782 C26.27242714 115.1906073 26.27242714 115.1906073 25.21939087 115.18037415 C23.72652955 115.16633613 22.23364692 115.1544381 20.74075317 115.14442635 C18.37886276 115.12800607 16.01713084 115.10476934 13.65531921 115.07952881 C6.94067786 115.0087707 0.22597307 114.94856404 -6.48884583 114.89741516 C-10.59670959 114.86564674 -14.70438879 114.82438112 -18.81210327 114.77721977 C-20.37818082 114.76119187 -21.94430085 114.74887394 -23.51043701 114.74031258 C-25.69858078 114.72817557 -27.88628928 114.70403464 -30.07429504 114.67720032 C-31.31989197 114.66689285 -32.56548889 114.65658539 -33.84883118 114.64596558 C-36.88484192 114.3742218 -36.88484192 114.3742218 -39.88484192 112.3742218 C-40.5549055 106.87803572 -39.38584666 103.65057314 -36.59577942 98.9601593 C-36.25487274 98.38262909 -35.91396606 97.80509888 -35.56272888 97.21006775 C-34.84204173 95.99734206 -34.11381992 94.78906534 -33.37849426 93.5851593 C-32.26517958 91.757982 -31.18113098 89.91571244 -30.09968567 88.0695343 C-25.58808432 80.52866567 -21.64823203 74.18772817 -12.88484192 71.3742218 C-9.72462463 71.11593628 -9.72462463 71.11593628 -6.12605286 71.10298157 C-5.46678299 71.09775482 -4.80751312 71.09252808 -4.12826538 71.08714294 C-2.70312109 71.07693915 -1.27793991 71.07112888 0.14723969 71.06926155 C2.4102187 71.06558017 4.67276633 71.04880384 6.93565369 71.02850342 C13.36731401 70.97327375 19.79903797 70.94249853 26.23088074 70.91792297 C30.17254093 70.90195865 34.11389592 70.87164536 38.05539703 70.83315849 C39.54952988 70.82158354 41.04371753 70.8155788 42.5378952 70.81547737 C56.08835132 71.16143542 56.08835132 71.16143542 67.55265808 64.9992218 C69.64574018 61.48284388 71.07901674 58.89215819 71.17765808 54.7492218 C69.80902106 51.68991551 68.09435696 51.19171079 65.07404518 49.98611832 C62.036294 49.03721761 59.18981159 48.97901673 56.01823425 48.9577179 C55.34742828 48.94913254 54.67662231 48.94054718 53.98548889 48.93170166 C51.79292504 48.90683234 49.60081827 48.90228116 47.40812683 48.8976593 C45.87591184 48.88333533 44.34370966 48.86757582 42.81152344 48.85044861 C38.7961429 48.8087527 34.78084187 48.7836482 30.76530457 48.76295471 C24.32103668 48.72701835 17.87696442 48.66620497 11.43290138 48.60446548 C9.18271561 48.58536799 6.93258248 48.57364727 4.68234253 48.56303406 C3.30993025 48.55282645 1.93751908 48.54246891 0.56510925 48.53193665 C-0.63511368 48.52544098 -1.83533661 48.51894531 -3.07192993 48.51225281 C-5.88484192 48.3742218 -5.88484192 48.3742218 -7.88484192 47.3742218 C-7.3992064 42.42073947 -6.50954722 37.82114409 -5.25984192 32.9992218 C-3.18110168 24.13129546 -3.8667765 17.51316098 -7.94734192 9.3820343 C-8.87727754 7.39042217 -9.42341855 5.51791787 -9.88484192 3.3742218 C-6.58565876 0.38952727 -4.40107894 -0.0007057 0 0 Z " fill="#010101" transform="translate(421.8848419189453,386.6257781982422)"/>
</svg>
